<?xml version="1.0" encoding="UTF-8" standalone="no"?><svg xmlns="http://www.w3.org/2000/svg" xmlns:xlink="http://www.w3.org/1999/xlink" contentScriptType="application/ecmascript" contentStyleType="text/css" height="469px" preserveAspectRatio="none" style="width:282px;height:469px;" version="1.1" viewBox="0 0 282 469" width="282px" zoomAndPan="magnify"><defs><filter height="300%" id="foztcyt" width="300%" x="-1" y="-1"><feGaussianBlur result="blurOut" stdDeviation="2.0"/><feColorMatrix in="blurOut" result="blurOut2" type="matrix" values="0 0 0 0 0 0 0 0 0 0 0 0 0 0 0 0 0 0 .4 0"/><feOffset dx="4.0" dy="4.0" in="blurOut2" result="blurOut3"/><feBlend in="SourceGraphic" in2="blurOut3" mode="normal"/></filter></defs><g><!--class Specfile--><rect fill="#FEFECE" filter="url(#foztcyt)" height="32" style="stroke: #A80036; stroke-width: 1.5;" width="81" x="6" y="8"/><ellipse cx="21" cy="24" fill="#ADD1B2" rx="11" ry="11" style="stroke: #A80036; stroke-width: 1.0;"/><path d="M23.9688,29.6406 Q23.3906,29.9375 22.75,30.0859 Q22.1094,30.2344 21.4063,30.2344 Q18.9063,30.2344 17.5859,28.5859 Q16.2656,26.9375 16.2656,23.8125 Q16.2656,20.6875 17.5859,19.0313 Q18.9063,17.375 21.4063,17.375 Q22.1094,17.375 22.7578,17.5313 Q23.4063,17.6875 23.9688,17.9844 L23.9688,20.7031 Q23.3438,20.125 22.75,19.8516 Q22.1563,19.5781 21.5313,19.5781 Q20.1875,19.5781 19.5,20.6484 Q18.8125,21.7188 18.8125,23.8125 Q18.8125,25.9063 19.5,26.9766 Q20.1875,28.0469 21.5313,28.0469 Q22.1563,28.0469 22.75,27.7734 Q23.3438,27.5 23.9688,26.9219 L23.9688,29.6406 Z "/><text fill="#000000" font-family="sans-serif" font-size="12" lengthAdjust="spacingAndGlyphs" textLength="49" x="35" y="28.1543">Specfile</text><!--class Database--><rect fill="#FEFECE" filter="url(#foztcyt)" height="32" style="stroke: #A80036; stroke-width: 1.5;" width="93" x="122" y="8"/><ellipse cx="137" cy="24" fill="#ADD1B2" rx="11" ry="11" style="stroke: #A80036; stroke-width: 1.0;"/><path d="M139.9688,29.6406 Q139.3906,29.9375 138.75,30.0859 Q138.1094,30.2344 137.4063,30.2344 Q134.9063,30.2344 133.5859,28.5859 Q132.2656,26.9375 132.2656,23.8125 Q132.2656,20.6875 133.5859,19.0313 Q134.9063,17.375 137.4063,17.375 Q138.1094,17.375 138.7578,17.5313 Q139.4063,17.6875 139.9688,17.9844 L139.9688,20.7031 Q139.3438,20.125 138.75,19.8516 Q138.1563,19.5781 137.5313,19.5781 Q136.1875,19.5781 135.5,20.6484 Q134.8125,21.7188 134.8125,23.8125 Q134.8125,25.9063 135.5,26.9766 Q136.1875,28.0469 137.5313,28.0469 Q138.1563,28.0469 138.75,27.7734 Q139.3438,27.5 139.9688,26.9219 L139.9688,29.6406 Z "/><text fill="#000000" font-family="sans-serif" font-size="12" lengthAdjust="spacingAndGlyphs" textLength="61" x="151" y="28.1543">Database</text><!--class SchemaReader--><rect fill="#FEFECE" filter="url(#foztcyt)" height="32" style="stroke: #A80036; stroke-width: 1.5;" width="127" x="44" y="113"/><ellipse cx="59" cy="129" fill="#ADD1B2" rx="11" ry="11" style="stroke: #A80036; stroke-width: 1.0;"/><path d="M61.9688,134.6406 Q61.3906,134.9375 60.75,135.0859 Q60.1094,135.2344 59.4063,135.2344 Q56.9063,135.2344 55.5859,133.5859 Q54.2656,131.9375 54.2656,128.8125 Q54.2656,125.6875 55.5859,124.0313 Q56.9063,122.375 59.4063,122.375 Q60.1094,122.375 60.7578,122.5313 Q61.4063,122.6875 61.9688,122.9844 L61.9688,125.7031 Q61.3438,125.125 60.75,124.8516 Q60.1563,124.5781 59.5313,124.5781 Q58.1875,124.5781 57.5,125.6484 Q56.8125,126.7188 56.8125,128.8125 Q56.8125,130.9063 57.5,131.9766 Q58.1875,133.0469 59.5313,133.0469 Q60.1563,133.0469 60.75,132.7734 Q61.3438,132.5 61.9688,131.9219 L61.9688,134.6406 Z "/><text fill="#000000" font-family="sans-serif" font-size="12" lengthAdjust="spacingAndGlyphs" textLength="95" x="73" y="133.1543">SchemaReader</text><!--class Schema--><rect fill="#FEFECE" filter="url(#foztcyt)" height="32" style="stroke: #A80036; stroke-width: 1.5;" width="82" x="66.5" y="218"/><ellipse cx="81.5" cy="234" fill="#ADD1B2" rx="11" ry="11" style="stroke: #A80036; stroke-width: 1.0;"/><path d="M84.4688,239.6406 Q83.8906,239.9375 83.25,240.0859 Q82.6094,240.2344 81.9063,240.2344 Q79.4063,240.2344 78.0859,238.5859 Q76.7656,236.9375 76.7656,233.8125 Q76.7656,230.6875 78.0859,229.0313 Q79.4063,227.375 81.9063,227.375 Q82.6094,227.375 83.2578,227.5313 Q83.9063,227.6875 84.4688,227.9844 L84.4688,230.7031 Q83.8438,230.125 83.25,229.8516 Q82.6563,229.5781 82.0313,229.5781 Q80.6875,229.5781 80,230.6484 Q79.3125,231.7188 79.3125,233.8125 Q79.3125,235.9063 80,236.9766 Q80.6875,238.0469 82.0313,238.0469 Q82.6563,238.0469 83.25,237.7734 Q83.8438,237.5 84.4688,236.9219 L84.4688,239.6406 Z "/><text fill="#000000" font-family="sans-serif" font-size="12" lengthAdjust="spacingAndGlyphs" textLength="50" x="95.5" y="238.1543">Schema</text><!--class Template--><rect fill="#FEFECE" filter="url(#foztcyt)" height="32" style="stroke: #A80036; stroke-width: 1.5;" width="90" x="183.5" y="218"/><ellipse cx="198.5" cy="234" fill="#ADD1B2" rx="11" ry="11" style="stroke: #A80036; stroke-width: 1.0;"/><path d="M201.4688,239.6406 Q200.8906,239.9375 200.25,240.0859 Q199.6094,240.2344 198.9063,240.2344 Q196.4063,240.2344 195.0859,238.5859 Q193.7656,236.9375 193.7656,233.8125 Q193.7656,230.6875 195.0859,229.0313 Q196.4063,227.375 198.9063,227.375 Q199.6094,227.375 200.2578,227.5313 Q200.9063,227.6875 201.4688,227.9844 L201.4688,230.7031 Q200.8438,230.125 200.25,229.8516 Q199.6563,229.5781 199.0313,229.5781 Q197.6875,229.5781 197,230.6484 Q196.3125,231.7188 196.3125,233.8125 Q196.3125,235.9063 197,236.9766 Q197.6875,238.0469 199.0313,238.0469 Q199.6563,238.0469 200.25,237.7734 Q200.8438,237.5 201.4688,236.9219 L201.4688,239.6406 Z "/><text fill="#000000" font-family="sans-serif" font-size="12" lengthAdjust="spacingAndGlyphs" textLength="58" x="212.5" y="238.1543">Template</text><!--class SchemaWriter--><rect fill="#FEFECE" filter="url(#foztcyt)" height="32" style="stroke: #A80036; stroke-width: 1.5;" width="119" x="125" y="323"/><ellipse cx="140" cy="339" fill="#ADD1B2" rx="11" ry="11" style="stroke: #A80036; stroke-width: 1.0;"/><path d="M142.9688,344.6406 Q142.3906,344.9375 141.75,345.0859 Q141.1094,345.2344 140.4063,345.2344 Q137.9063,345.2344 136.5859,343.5859 Q135.2656,341.9375 135.2656,338.8125 Q135.2656,335.6875 136.5859,334.0313 Q137.9063,332.375 140.4063,332.375 Q141.1094,332.375 141.7578,332.5313 Q142.4063,332.6875 142.9688,332.9844 L142.9688,335.7031 Q142.3438,335.125 141.75,334.8516 Q141.1563,334.5781 140.5313,334.5781 Q139.1875,334.5781 138.5,335.6484 Q137.8125,336.7188 137.8125,338.8125 Q137.8125,340.9063 138.5,341.9766 Q139.1875,343.0469 140.5313,343.0469 Q141.1563,343.0469 141.75,342.7734 Q142.3438,342.5 142.9688,341.9219 L142.9688,344.6406 Z "/><text fill="#000000" font-family="sans-serif" font-size="12" lengthAdjust="spacingAndGlyphs" textLength="87" x="154" y="343.1543">SchemaWriter</text><!--class Code--><rect fill="#FEFECE" filter="url(#foztcyt)" height="32" style="stroke: #A80036; stroke-width: 1.5;" width="64" x="152.5" y="428"/><ellipse cx="167.5" cy="444" fill="#ADD1B2" rx="11" ry="11" style="stroke: #A80036; stroke-width: 1.0;"/><path d="M170.4688,449.6406 Q169.8906,449.9375 169.25,450.0859 Q168.6094,450.2344 167.9063,450.2344 Q165.4063,450.2344 164.0859,448.5859 Q162.7656,446.9375 162.7656,443.8125 Q162.7656,440.6875 164.0859,439.0313 Q165.4063,437.375 167.9063,437.375 Q168.6094,437.375 169.2578,437.5313 Q169.9063,437.6875 170.4688,437.9844 L170.4688,440.7031 Q169.8438,440.125 169.25,439.8516 Q168.6563,439.5781 168.0313,439.5781 Q166.6875,439.5781 166,440.6484 Q165.3125,441.7188 165.3125,443.8125 Q165.3125,445.9063 166,446.9766 Q166.6875,448.0469 168.0313,448.0469 Q168.6563,448.0469 169.25,447.7734 Q169.8438,447.5 170.4688,446.9219 L170.4688,449.6406 Z "/><text fill="#000000" font-family="sans-serif" font-size="12" lengthAdjust="spacingAndGlyphs" textLength="32" x="181.5" y="448.1543">Code</text><path d="M55.5008,40.198 C67.0338,59.672 86.9115,93.236 98.4623,112.74 " fill="none" style="stroke: #A80036; stroke-width: 1.0;"/><polygon fill="#000000" points="83.5,75,86.5,81,89.5,75,83.5,75" style="stroke: #000000; stroke-width: 1.0;"/><path d="M159.499,40.198 C147.966,59.672 128.089,93.236 116.538,112.74 " fill="none" style="stroke: #A80036; stroke-width: 1.0;"/><polygon fill="#000000" points="143.5,75,146.5,81,149.5,75,143.5,75" style="stroke: #000000; stroke-width: 1.0;"/><path d="M107.5,145.198 C107.5,164.672 107.5,198.236 107.5,217.74 " fill="none" style="stroke: #A80036; stroke-width: 1.0;"/><polygon fill="#000000" points="109.5,180,112.5,186,115.5,180,109.5,180" style="stroke: #000000; stroke-width: 1.0;"/><path d="M118.862,250.198 C133.42,269.672 158.511,303.236 173.092,322.74 " fill="none" style="stroke: #A80036; stroke-width: 1.0;"/><polygon fill="#000000" points="152.5,285,155.5,291,158.5,285,152.5,285" style="stroke: #000000; stroke-width: 1.0;"/><path d="M222.008,250.198 C213.689,269.672 199.351,303.236 191.019,322.74 " fill="none" style="stroke: #A80036; stroke-width: 1.0;"/><polygon fill="#000000" points="210.5,285,213.5,291,216.5,285,210.5,285" style="stroke: #000000; stroke-width: 1.0;"/><path d="M184.5,355.198 C184.5,374.6719 184.5,408.2358 184.5,427.7396 " fill="none" style="stroke: #A80036; stroke-width: 1.0;"/><polygon fill="#000000" points="186.5,390,189.5,396,192.5,390,186.5,390" style="stroke: #000000; stroke-width: 1.0;"/></g></svg>