<?xml version="1.0" encoding="UTF-8" standalone="no"?><svg xmlns="http://www.w3.org/2000/svg" xmlns:xlink="http://www.w3.org/1999/xlink" contentScriptType="application/ecmascript" contentStyleType="text/css" height="1019px" preserveAspectRatio="none" style="width:554px;height:1019px;" version="1.1" viewBox="0 0 554 1019" width="554px" zoomAndPan="magnify"><defs><filter height="300%" id="f2py0lp" width="300%" x="-1" y="-1"><feGaussianBlur result="blurOut" stdDeviation="2.0"/><feColorMatrix in="blurOut" result="blurOut2" type="matrix" values="0 0 0 0 0 0 0 0 0 0 0 0 0 0 0 0 0 0 .4 0"/><feOffset dx="4.0" dy="4.0" in="blurOut2" result="blurOut3"/><feBlend in="SourceGraphic" in2="blurOut3" mode="normal"/></filter></defs><g><!--class Application--><rect fill="#FEFECE" filter="url(#f2py0lp)" height="188.8516" style="stroke: #A80036; stroke-width: 1.5;" width="245" x="175" y="8"/><ellipse cx="258.75" cy="24" fill="#ADD1B2" rx="11" ry="11" style="stroke: #A80036; stroke-width: 1.0;"/><path d="M261.7188,29.6406 Q261.1406,29.9375 260.5,30.0859 Q259.8594,30.2344 259.1563,30.2344 Q256.6563,30.2344 255.3359,28.5859 Q254.0156,26.9375 254.0156,23.8125 Q254.0156,20.6875 255.3359,19.0313 Q256.6563,17.375 259.1563,17.375 Q259.8594,17.375 260.5078,17.5313 Q261.1563,17.6875 261.7188,17.9844 L261.7188,20.7031 Q261.0938,20.125 260.5,19.8516 Q259.9063,19.5781 259.2813,19.5781 Q257.9375,19.5781 257.25,20.6484 Q256.5625,21.7188 256.5625,23.8125 Q256.5625,25.9063 257.25,26.9766 Q257.9375,28.0469 259.2813,28.0469 Q259.9063,28.0469 260.5,27.7734 Q261.0938,27.5 261.7188,26.9219 L261.7188,29.6406 Z "/><text fill="#000000" font-family="sans-serif" font-size="12" lengthAdjust="spacingAndGlyphs" textLength="69" x="279.25" y="28.1543">Application</text><line style="stroke: #A80036; stroke-width: 1.5;" x1="176" x2="419" y1="40" y2="40"/><ellipse cx="186" cy="51.9023" fill="none" rx="3" ry="3" style="stroke: #038048; stroke-width: 1.0;"/><text fill="#000000" font-family="sans-serif" font-size="11" lengthAdjust="spacingAndGlyphs" textLength="39" x="195" y="54.2104">uri: str</text><ellipse cx="186" cy="64.707" fill="none" rx="3" ry="3" style="stroke: #038048; stroke-width: 1.0;"/><text fill="#000000" font-family="sans-serif" font-size="11" lengthAdjust="spacingAndGlyphs" textLength="70" x="195" y="67.0151">options: dict</text><ellipse cx="186" cy="77.5117" fill="none" rx="3" ry="3" style="stroke: #038048; stroke-width: 1.0;"/><text fill="#000000" font-family="sans-serif" font-size="11" lengthAdjust="spacingAndGlyphs" textLength="122" x="195" y="79.8198">writer_types: List[str]</text><ellipse cx="186" cy="90.3164" fill="none" rx="3" ry="3" style="stroke: #038048; stroke-width: 1.0;"/><text fill="#000000" font-family="sans-serif" font-size="11" lengthAdjust="spacingAndGlyphs" textLength="155" x="195" y="92.6245">writers: List[SchemaWriter]</text><ellipse cx="186" cy="103.1211" fill="none" rx="3" ry="3" style="stroke: #038048; stroke-width: 1.0;"/><text fill="#000000" font-family="sans-serif" font-size="11" lengthAdjust="spacingAndGlyphs" textLength="118" x="195" y="105.4292">converter: Converter</text><ellipse cx="186" cy="115.9258" fill="none" rx="3" ry="3" style="stroke: #038048; stroke-width: 1.0;"/><text fill="#000000" font-family="sans-serif" font-size="11" lengthAdjust="spacingAndGlyphs" textLength="99" x="195" y="118.2339">schema: Schema</text><line style="stroke: #A80036; stroke-width: 1.5;" x1="176" x2="419" y1="124.8281" y2="124.8281"/><ellipse cx="186" cy="136.7305" fill="#84BE84" rx="3" ry="3" style="stroke: #038048; stroke-width: 1.0;"/><text fill="#000000" font-family="sans-serif" font-size="11" lengthAdjust="spacingAndGlyphs" textLength="90" x="195" y="139.0386">run(writer_type)</text><ellipse cx="186" cy="149.5352" fill="#84BE84" rx="3" ry="3" style="stroke: #038048; stroke-width: 1.0;"/><text fill="#000000" font-family="sans-serif" font-size="11" lengthAdjust="spacingAndGlyphs" textLength="99" x="195" y="151.8433">write(writer_type)</text><ellipse cx="186" cy="162.3398" fill="#84BE84" rx="3" ry="3" style="stroke: #038048; stroke-width: 1.0;"/><text fill="#000000" font-family="sans-serif" font-size="11" lengthAdjust="spacingAndGlyphs" textLength="120" x="195" y="164.6479">populate(writer_type)</text><ellipse cx="186" cy="175.1445" fill="#84BE84" rx="3" ry="3" style="stroke: #038048; stroke-width: 1.0;"/><text fill="#000000" font-family="sans-serif" font-size="11" lengthAdjust="spacingAndGlyphs" textLength="219" x="195" y="177.4526">get_converter(uri, options) : Converter</text><ellipse cx="186" cy="187.9492" fill="#84BE84" rx="3" ry="3" style="stroke: #038048; stroke-width: 1.0;"/><text fill="#000000" font-family="sans-serif" font-size="11" lengthAdjust="spacingAndGlyphs" textLength="173" x="195" y="190.2573">get_writer(writer_type) : Writer</text><!--class Converter--><rect fill="#FEFECE" filter="url(#f2py0lp)" height="124.8281" style="stroke: #A80036; stroke-width: 1.5;" width="125" x="155" y="257"/><ellipse cx="184.4" cy="273" fill="#ADD1B2" rx="11" ry="11" style="stroke: #A80036; stroke-width: 1.0;"/><path d="M187.3688,278.6406 Q186.7906,278.9375 186.15,279.0859 Q185.5094,279.2344 184.8063,279.2344 Q182.3063,279.2344 180.9859,277.5859 Q179.6656,275.9375 179.6656,272.8125 Q179.6656,269.6875 180.9859,268.0313 Q182.3063,266.375 184.8063,266.375 Q185.5094,266.375 186.1578,266.5313 Q186.8063,266.6875 187.3688,266.9844 L187.3688,269.7031 Q186.7438,269.125 186.15,268.8516 Q185.5563,268.5781 184.9313,268.5781 Q183.5875,268.5781 182.9,269.6484 Q182.2125,270.7188 182.2125,272.8125 Q182.2125,274.9063 182.9,275.9766 Q183.5875,277.0469 184.9313,277.0469 Q185.5563,277.0469 186.15,276.7734 Q186.7438,276.5 187.3688,275.9219 L187.3688,278.6406 Z "/><text fill="#000000" font-family="sans-serif" font-size="12" lengthAdjust="spacingAndGlyphs" textLength="61" x="201.6" y="277.1543">Converter</text><line style="stroke: #A80036; stroke-width: 1.5;" x1="156" x2="279" y1="289" y2="289"/><ellipse cx="166" cy="300.9023" fill="none" rx="3" ry="3" style="stroke: #038048; stroke-width: 1.0;"/><text fill="#000000" font-family="sans-serif" font-size="11" lengthAdjust="spacingAndGlyphs" textLength="43" x="175" y="303.2104">uri : str</text><ellipse cx="166" cy="313.707" fill="none" rx="3" ry="3" style="stroke: #038048; stroke-width: 1.0;"/><text fill="#000000" font-family="sans-serif" font-size="11" lengthAdjust="spacingAndGlyphs" textLength="99" x="175" y="316.0151">schema: Schema</text><ellipse cx="166" cy="326.5117" fill="none" rx="3" ry="3" style="stroke: #038048; stroke-width: 1.0;"/><text fill="#000000" font-family="sans-serif" font-size="11" lengthAdjust="spacingAndGlyphs" textLength="70" x="175" y="328.8198">options: dict</text><line style="stroke: #A80036; stroke-width: 1.5;" x1="156" x2="279" y1="335.4141" y2="335.4141"/><ellipse cx="166" cy="347.3164" fill="#84BE84" rx="3" ry="3" style="stroke: #038048; stroke-width: 1.0;"/><text fill="#000000" font-family="sans-serif" font-size="11" lengthAdjust="spacingAndGlyphs" textLength="73" x="175" y="349.6245">preprocess()</text><ellipse cx="166" cy="360.1211" fill="#84BE84" rx="3" ry="3" style="stroke: #038048; stroke-width: 1.0;"/><text fill="#000000" font-family="sans-serif" font-size="11" lengthAdjust="spacingAndGlyphs" textLength="54" x="175" y="362.4292">process()</text><ellipse cx="166" cy="372.9258" fill="#84BE84" rx="3" ry="3" style="stroke: #038048; stroke-width: 1.0;"/><text fill="#000000" font-family="sans-serif" font-size="11" lengthAdjust="spacingAndGlyphs" textLength="79" x="175" y="375.2339">postprocess()</text><!--class SchemaWriter--><rect fill="#FEFECE" filter="url(#f2py0lp)" height="99.2188" style="stroke: #A80036; stroke-width: 1.5;" width="125" x="315" y="270"/><ellipse cx="332.7" cy="286" fill="#ADD1B2" rx="11" ry="11" style="stroke: #A80036; stroke-width: 1.0;"/><path d="M335.6688,291.6406 Q335.0906,291.9375 334.45,292.0859 Q333.8094,292.2344 333.1063,292.2344 Q330.6063,292.2344 329.2859,290.5859 Q327.9656,288.9375 327.9656,285.8125 Q327.9656,282.6875 329.2859,281.0313 Q330.6063,279.375 333.1063,279.375 Q333.8094,279.375 334.4578,279.5313 Q335.1063,279.6875 335.6688,279.9844 L335.6688,282.7031 Q335.0438,282.125 334.45,281.8516 Q333.8563,281.5781 333.2313,281.5781 Q331.8875,281.5781 331.2,282.6484 Q330.5125,283.7188 330.5125,285.8125 Q330.5125,287.9063 331.2,288.9766 Q331.8875,290.0469 333.2313,290.0469 Q333.8563,290.0469 334.45,289.7734 Q335.0438,289.5 335.6688,288.9219 L335.6688,291.6406 Z "/><text fill="#000000" font-family="sans-serif" font-size="12" lengthAdjust="spacingAndGlyphs" textLength="87" x="347.3" y="290.1543">SchemaWriter</text><line style="stroke: #A80036; stroke-width: 1.5;" x1="316" x2="439" y1="302" y2="302"/><ellipse cx="326" cy="313.9023" fill="none" rx="3" ry="3" style="stroke: #038048; stroke-width: 1.0;"/><text fill="#000000" font-family="sans-serif" font-size="11" lengthAdjust="spacingAndGlyphs" textLength="99" x="335" y="316.2104">schema: Schema</text><ellipse cx="326" cy="326.707" fill="none" rx="3" ry="3" style="stroke: #038048; stroke-width: 1.0;"/><text fill="#000000" font-family="sans-serif" font-size="11" lengthAdjust="spacingAndGlyphs" textLength="70" x="335" y="329.0151">options: dict</text><line style="stroke: #A80036; stroke-width: 1.5;" x1="316" x2="439" y1="335.6094" y2="335.6094"/><ellipse cx="326" cy="347.5117" fill="#84BE84" rx="3" ry="3" style="stroke: #038048; stroke-width: 1.0;"/><text fill="#000000" font-family="sans-serif" font-size="11" lengthAdjust="spacingAndGlyphs" textLength="27" x="335" y="349.8198">run()</text><ellipse cx="326" cy="360.3164" fill="#84BE84" rx="3" ry="3" style="stroke: #038048; stroke-width: 1.0;"/><text fill="#000000" font-family="sans-serif" font-size="11" lengthAdjust="spacingAndGlyphs" textLength="36" x="335" y="362.6245">write()</text><!--class Schema--><rect fill="#FEFECE" filter="url(#f2py0lp)" height="99.2188" style="stroke: #A80036; stroke-width: 1.5;" width="141" x="153" y="503"/><ellipse cx="194.55" cy="519" fill="#ADD1B2" rx="11" ry="11" style="stroke: #A80036; stroke-width: 1.0;"/><path d="M197.5188,524.6406 Q196.9406,524.9375 196.3,525.0859 Q195.6594,525.2344 194.9563,525.2344 Q192.4563,525.2344 191.1359,523.5859 Q189.8156,521.9375 189.8156,518.8125 Q189.8156,515.6875 191.1359,514.0313 Q192.4563,512.375 194.9563,512.375 Q195.6594,512.375 196.3078,512.5313 Q196.9563,512.6875 197.5188,512.9844 L197.5188,515.7031 Q196.8938,515.125 196.3,514.8516 Q195.7063,514.5781 195.0813,514.5781 Q193.7375,514.5781 193.05,515.6484 Q192.3625,516.7188 192.3625,518.8125 Q192.3625,520.9063 193.05,521.9766 Q193.7375,523.0469 195.0813,523.0469 Q195.7063,523.0469 196.3,522.7734 Q196.8938,522.5 197.5188,521.9219 L197.5188,524.6406 Z "/><text fill="#000000" font-family="sans-serif" font-size="12" lengthAdjust="spacingAndGlyphs" textLength="50" x="214.45" y="523.1543">Schema</text><line style="stroke: #A80036; stroke-width: 1.5;" x1="154" x2="293" y1="535" y2="535"/><ellipse cx="164" cy="546.9023" fill="none" rx="3" ry="3" style="stroke: #038048; stroke-width: 1.0;"/><text fill="#000000" font-family="sans-serif" font-size="11" lengthAdjust="spacingAndGlyphs" textLength="60" x="173" y="549.2104">name : str</text><ellipse cx="164" cy="559.707" fill="none" rx="3" ry="3" style="stroke: #038048; stroke-width: 1.0;"/><text fill="#000000" font-family="sans-serif" font-size="11" lengthAdjust="spacingAndGlyphs" textLength="115" x="173" y="562.0151">models : List[Model]</text><ellipse cx="164" cy="572.5117" fill="none" rx="3" ry="3" style="stroke: #038048; stroke-width: 1.0;"/><text fill="#000000" font-family="sans-serif" font-size="11" lengthAdjust="spacingAndGlyphs" textLength="111" x="173" y="574.8198">enums : List[Enum]</text><ellipse cx="164" cy="585.3164" fill="none" rx="3" ry="3" style="stroke: #038048; stroke-width: 1.0;"/><text fill="#000000" font-family="sans-serif" font-size="11" lengthAdjust="spacingAndGlyphs" textLength="86" x="173" y="587.6245">metadata : dict</text><line style="stroke: #A80036; stroke-width: 1.5;" x1="154" x2="293" y1="594.2188" y2="594.2188"/><!--class Template--><rect fill="#FEFECE" filter="url(#f2py0lp)" height="48" style="stroke: #A80036; stroke-width: 1.5;" width="90" x="323.5" y="694"/><ellipse cx="338.5" cy="710" fill="#ADD1B2" rx="11" ry="11" style="stroke: #A80036; stroke-width: 1.0;"/><path d="M341.4688,715.6406 Q340.8906,715.9375 340.25,716.0859 Q339.6094,716.2344 338.9063,716.2344 Q336.4063,716.2344 335.0859,714.5859 Q333.7656,712.9375 333.7656,709.8125 Q333.7656,706.6875 335.0859,705.0313 Q336.4063,703.375 338.9063,703.375 Q339.6094,703.375 340.2578,703.5313 Q340.9063,703.6875 341.4688,703.9844 L341.4688,706.7031 Q340.8438,706.125 340.25,705.8516 Q339.6563,705.5781 339.0313,705.5781 Q337.6875,705.5781 337,706.6484 Q336.3125,707.7188 336.3125,709.8125 Q336.3125,711.9063 337,712.9766 Q337.6875,714.0469 339.0313,714.0469 Q339.6563,714.0469 340.25,713.7734 Q340.8438,713.5 341.4688,712.9219 L341.4688,715.6406 Z "/><text fill="#000000" font-family="sans-serif" font-size="12" lengthAdjust="spacingAndGlyphs" textLength="58" x="352.5" y="714.1543">Template</text><line style="stroke: #A80036; stroke-width: 1.5;" x1="324.5" x2="412.5" y1="726" y2="726"/><line style="stroke: #A80036; stroke-width: 1.5;" x1="324.5" x2="412.5" y1="734" y2="734"/><!--class Generator--><rect fill="#FEFECE" filter="url(#f2py0lp)" height="99.2188" style="stroke: #A80036; stroke-width: 1.5;" width="123" x="422" y="503"/><ellipse cx="449.15" cy="519" fill="#ADD1B2" rx="11" ry="11" style="stroke: #A80036; stroke-width: 1.0;"/><path d="M452.1188,524.6406 Q451.5406,524.9375 450.9,525.0859 Q450.2594,525.2344 449.5563,525.2344 Q447.0563,525.2344 445.7359,523.5859 Q444.4156,521.9375 444.4156,518.8125 Q444.4156,515.6875 445.7359,514.0313 Q447.0563,512.375 449.5563,512.375 Q450.2594,512.375 450.9078,512.5313 Q451.5563,512.6875 452.1188,512.9844 L452.1188,515.7031 Q451.4938,515.125 450.9,514.8516 Q450.3063,514.5781 449.6813,514.5781 Q448.3375,514.5781 447.65,515.6484 Q446.9625,516.7188 446.9625,518.8125 Q446.9625,520.9063 447.65,521.9766 Q448.3375,523.0469 449.6813,523.0469 Q450.3063,523.0469 450.9,522.7734 Q451.4938,522.5 452.1188,521.9219 L452.1188,524.6406 Z "/><text fill="#000000" font-family="sans-serif" font-size="12" lengthAdjust="spacingAndGlyphs" textLength="64" x="465.85" y="523.1543">Generator</text><line style="stroke: #A80036; stroke-width: 1.5;" x1="423" x2="544" y1="535" y2="535"/><ellipse cx="433" cy="546.9023" fill="none" rx="3" ry="3" style="stroke: #038048; stroke-width: 1.0;"/><text fill="#000000" font-family="sans-serif" font-size="11" lengthAdjust="spacingAndGlyphs" textLength="69" x="442" y="549.2104">nspace: dict</text><ellipse cx="433" cy="559.707" fill="none" rx="3" ry="3" style="stroke: #038048; stroke-width: 1.0;"/><text fill="#000000" font-family="sans-serif" font-size="11" lengthAdjust="spacingAndGlyphs" textLength="70" x="442" y="562.0151">options: dict</text><ellipse cx="433" cy="572.5117" fill="none" rx="3" ry="3" style="stroke: #038048; stroke-width: 1.0;"/><text fill="#000000" font-family="sans-serif" font-size="11" lengthAdjust="spacingAndGlyphs" textLength="97" x="442" y="574.8198">entries: List[App]</text><line style="stroke: #A80036; stroke-width: 1.5;" x1="423" x2="544" y1="581.4141" y2="581.4141"/><ellipse cx="433" cy="593.3164" fill="#84BE84" rx="3" ry="3" style="stroke: #038048; stroke-width: 1.0;"/><text fill="#000000" font-family="sans-serif" font-size="11" lengthAdjust="spacingAndGlyphs" textLength="59" x="442" y="595.6245">generate()</text><!--class App--><rect fill="#FEFECE" filter="url(#f2py0lp)" height="86.4141" style="stroke: #A80036; stroke-width: 1.5;" width="96" x="448.5" y="675"/><ellipse cx="481.5" cy="691" fill="#ADD1B2" rx="11" ry="11" style="stroke: #A80036; stroke-width: 1.0;"/><path d="M484.4688,696.6406 Q483.8906,696.9375 483.25,697.0859 Q482.6094,697.2344 481.9063,697.2344 Q479.4063,697.2344 478.0859,695.5859 Q476.7656,693.9375 476.7656,690.8125 Q476.7656,687.6875 478.0859,686.0313 Q479.4063,684.375 481.9063,684.375 Q482.6094,684.375 483.2578,684.5313 Q483.9063,684.6875 484.4688,684.9844 L484.4688,687.7031 Q483.8438,687.125 483.25,686.8516 Q482.6563,686.5781 482.0313,686.5781 Q480.6875,686.5781 480,687.6484 Q479.3125,688.7188 479.3125,690.8125 Q479.3125,692.9063 480,693.9766 Q480.6875,695.0469 482.0313,695.0469 Q482.6563,695.0469 483.25,694.7734 Q483.8438,694.5 484.4688,693.9219 L484.4688,696.6406 Z "/><text fill="#000000" font-family="sans-serif" font-size="12" lengthAdjust="spacingAndGlyphs" textLength="24" x="499.5" y="695.1543">App</text><line style="stroke: #A80036; stroke-width: 1.5;" x1="449.5" x2="543.5" y1="707" y2="707"/><ellipse cx="459.5" cy="718.9023" fill="none" rx="3" ry="3" style="stroke: #038048; stroke-width: 1.0;"/><text fill="#000000" font-family="sans-serif" font-size="11" lengthAdjust="spacingAndGlyphs" textLength="69" x="468.5" y="721.2104">nspace: dict</text><ellipse cx="459.5" cy="731.707" fill="none" rx="3" ry="3" style="stroke: #038048; stroke-width: 1.0;"/><text fill="#000000" font-family="sans-serif" font-size="11" lengthAdjust="spacingAndGlyphs" textLength="70" x="468.5" y="734.0151">options: dict</text><line style="stroke: #A80036; stroke-width: 1.5;" x1="449.5" x2="543.5" y1="740.6094" y2="740.6094"/><ellipse cx="459.5" cy="752.5117" fill="#84BE84" rx="3" ry="3" style="stroke: #038048; stroke-width: 1.0;"/><text fill="#000000" font-family="sans-serif" font-size="11" lengthAdjust="spacingAndGlyphs" textLength="59" x="468.5" y="754.8198">generate()</text><!--class Model--><rect fill="#FEFECE" filter="url(#f2py0lp)" height="112.0234" style="stroke: #A80036; stroke-width: 1.5;" width="123" x="6" y="662"/><ellipse cx="45.3" cy="678" fill="#ADD1B2" rx="11" ry="11" style="stroke: #A80036; stroke-width: 1.0;"/><path d="M48.2688,683.6406 Q47.6906,683.9375 47.05,684.0859 Q46.4094,684.2344 45.7063,684.2344 Q43.2063,684.2344 41.8859,682.5859 Q40.5656,680.9375 40.5656,677.8125 Q40.5656,674.6875 41.8859,673.0313 Q43.2063,671.375 45.7063,671.375 Q46.4094,671.375 47.0578,671.5313 Q47.7063,671.6875 48.2688,671.9844 L48.2688,674.7031 Q47.6438,674.125 47.05,673.8516 Q46.4563,673.5781 45.8313,673.5781 Q44.4875,673.5781 43.8,674.6484 Q43.1125,675.7188 43.1125,677.8125 Q43.1125,679.9063 43.8,680.9766 Q44.4875,682.0469 45.8313,682.0469 Q46.4563,682.0469 47.05,681.7734 Q47.6438,681.5 48.2688,680.9219 L48.2688,683.6406 Z "/><text fill="#000000" font-family="sans-serif" font-size="12" lengthAdjust="spacingAndGlyphs" textLength="37" x="64.7" y="682.1543">Model</text><line style="stroke: #A80036; stroke-width: 1.5;" x1="7" x2="128" y1="694" y2="694"/><ellipse cx="17" cy="705.9023" fill="none" rx="3" ry="3" style="stroke: #038048; stroke-width: 1.0;"/><text fill="#000000" font-family="sans-serif" font-size="11" lengthAdjust="spacingAndGlyphs" textLength="60" x="26" y="708.2104">name : str</text><ellipse cx="17" cy="718.707" fill="none" rx="3" ry="3" style="stroke: #038048; stroke-width: 1.0;"/><text fill="#000000" font-family="sans-serif" font-size="11" lengthAdjust="spacingAndGlyphs" textLength="97" x="26" y="721.0151">fields : List[Field]</text><ellipse cx="17" cy="731.5117" fill="none" rx="3" ry="3" style="stroke: #038048; stroke-width: 1.0;"/><text fill="#000000" font-family="sans-serif" font-size="11" lengthAdjust="spacingAndGlyphs" textLength="91" x="26" y="733.8198">properties : dict</text><ellipse cx="17" cy="744.3164" fill="none" rx="3" ry="3" style="stroke: #038048; stroke-width: 1.0;"/><text fill="#000000" font-family="sans-serif" font-size="11" lengthAdjust="spacingAndGlyphs" textLength="86" x="26" y="746.6245">metadata : dict</text><ellipse cx="17" cy="757.1211" fill="none" rx="3" ry="3" style="stroke: #038048; stroke-width: 1.0;"/><text fill="#000000" font-family="sans-serif" font-size="11" lengthAdjust="spacingAndGlyphs" textLength="96" x="26" y="759.4292">data : List[Tuple]</text><line style="stroke: #A80036; stroke-width: 1.5;" x1="7" x2="128" y1="766.0234" y2="766.0234"/><!--class Enum--><rect fill="#FEFECE" filter="url(#f2py0lp)" height="73.6094" style="stroke: #A80036; stroke-width: 1.5;" width="122" x="164.5" y="681"/><ellipse cx="204.25" cy="697" fill="#ADD1B2" rx="11" ry="11" style="stroke: #A80036; stroke-width: 1.0;"/><path d="M207.2188,702.6406 Q206.6406,702.9375 206,703.0859 Q205.3594,703.2344 204.6563,703.2344 Q202.1563,703.2344 200.8359,701.5859 Q199.5156,699.9375 199.5156,696.8125 Q199.5156,693.6875 200.8359,692.0313 Q202.1563,690.375 204.6563,690.375 Q205.3594,690.375 206.0078,690.5313 Q206.6563,690.6875 207.2188,690.9844 L207.2188,693.7031 Q206.5938,693.125 206,692.8516 Q205.4063,692.5781 204.7813,692.5781 Q203.4375,692.5781 202.75,693.6484 Q202.0625,694.7188 202.0625,696.8125 Q202.0625,698.9063 202.75,699.9766 Q203.4375,701.0469 204.7813,701.0469 Q205.4063,701.0469 206,700.7734 Q206.5938,700.5 207.2188,699.9219 L207.2188,702.6406 Z "/><text fill="#000000" font-family="sans-serif" font-size="12" lengthAdjust="spacingAndGlyphs" textLength="35" x="223.75" y="701.1543">Enum</text><line style="stroke: #A80036; stroke-width: 1.5;" x1="165.5" x2="285.5" y1="713" y2="713"/><ellipse cx="175.5" cy="724.9023" fill="none" rx="3" ry="3" style="stroke: #038048; stroke-width: 1.0;"/><text fill="#000000" font-family="sans-serif" font-size="11" lengthAdjust="spacingAndGlyphs" textLength="60" x="184.5" y="727.2104">name : str</text><ellipse cx="175.5" cy="737.707" fill="none" rx="3" ry="3" style="stroke: #038048; stroke-width: 1.0;"/><text fill="#000000" font-family="sans-serif" font-size="11" lengthAdjust="spacingAndGlyphs" textLength="96" x="184.5" y="740.0151">data : List[Tuple]</text><line style="stroke: #A80036; stroke-width: 1.5;" x1="165.5" x2="285.5" y1="746.6094" y2="746.6094"/><!--class Field--><rect fill="#FEFECE" filter="url(#f2py0lp)" height="176.0469" style="stroke: #A80036; stroke-width: 1.5;" width="117" x="9" y="834"/><ellipse cx="49.2" cy="850" fill="#ADD1B2" rx="11" ry="11" style="stroke: #A80036; stroke-width: 1.0;"/><path d="M52.1688,855.6406 Q51.5906,855.9375 50.95,856.0859 Q50.3094,856.2344 49.6063,856.2344 Q47.1063,856.2344 45.7859,854.5859 Q44.4656,852.9375 44.4656,849.8125 Q44.4656,846.6875 45.7859,845.0313 Q47.1063,843.375 49.6063,843.375 Q50.3094,843.375 50.9578,843.5313 Q51.6063,843.6875 52.1688,843.9844 L52.1688,846.7031 Q51.5438,846.125 50.95,845.8516 Q50.3563,845.5781 49.7313,845.5781 Q48.3875,845.5781 47.7,846.6484 Q47.0125,847.7188 47.0125,849.8125 Q47.0125,851.9063 47.7,852.9766 Q48.3875,854.0469 49.7313,854.0469 Q50.3563,854.0469 50.95,853.7734 Q51.5438,853.5 52.1688,852.9219 L52.1688,855.6406 Z "/><text fill="#000000" font-family="sans-serif" font-size="12" lengthAdjust="spacingAndGlyphs" textLength="29" x="68.8" y="854.1543">Field</text><line style="stroke: #A80036; stroke-width: 1.5;" x1="10" x2="125" y1="866" y2="866"/><ellipse cx="20" cy="877.9023" fill="none" rx="3" ry="3" style="stroke: #038048; stroke-width: 1.0;"/><text fill="#000000" font-family="sans-serif" font-size="11" lengthAdjust="spacingAndGlyphs" textLength="60" x="29" y="880.2104">name : str</text><ellipse cx="20" cy="890.707" fill="none" rx="3" ry="3" style="stroke: #038048; stroke-width: 1.0;"/><text fill="#000000" font-family="sans-serif" font-size="11" lengthAdjust="spacingAndGlyphs" textLength="52" x="29" y="893.0151">type : str</text><ellipse cx="20" cy="903.5117" fill="none" rx="3" ry="3" style="stroke: #038048; stroke-width: 1.0;"/><text fill="#000000" font-family="sans-serif" font-size="11" lengthAdjust="spacingAndGlyphs" textLength="61" x="29" y="905.8198">length : int</text><ellipse cx="20" cy="916.3164" fill="none" rx="3" ry="3" style="stroke: #038048; stroke-width: 1.0;"/><text fill="#000000" font-family="sans-serif" font-size="11" lengthAdjust="spacingAndGlyphs" textLength="58" x="29" y="918.6245">index : str</text><ellipse cx="20" cy="929.1211" fill="none" rx="3" ry="3" style="stroke: #038048; stroke-width: 1.0;"/><text fill="#000000" font-family="sans-serif" font-size="11" lengthAdjust="spacingAndGlyphs" textLength="84" x="29" y="931.4292">required : bool</text><ellipse cx="20" cy="941.9258" fill="none" rx="3" ry="3" style="stroke: #038048; stroke-width: 1.0;"/><text fill="#000000" font-family="sans-serif" font-size="11" lengthAdjust="spacingAndGlyphs" textLength="67" x="29" y="944.2339">default : str</text><ellipse cx="20" cy="954.7305" fill="none" rx="3" ry="3" style="stroke: #038048; stroke-width: 1.0;"/><text fill="#000000" font-family="sans-serif" font-size="11" lengthAdjust="spacingAndGlyphs" textLength="85" x="29" y="957.0386">constraint : str</text><ellipse cx="20" cy="967.5352" fill="none" rx="3" ry="3" style="stroke: #038048; stroke-width: 1.0;"/><text fill="#000000" font-family="sans-serif" font-size="11" lengthAdjust="spacingAndGlyphs" textLength="77" x="29" y="969.8433">category : str</text><ellipse cx="20" cy="980.3398" fill="none" rx="3" ry="3" style="stroke: #038048; stroke-width: 1.0;"/><text fill="#000000" font-family="sans-serif" font-size="11" lengthAdjust="spacingAndGlyphs" textLength="62" x="29" y="982.6479">action : str</text><ellipse cx="20" cy="993.1445" fill="none" rx="3" ry="3" style="stroke: #038048; stroke-width: 1.0;"/><text fill="#000000" font-family="sans-serif" font-size="11" lengthAdjust="spacingAndGlyphs" textLength="91" x="29" y="995.4526">description : str</text><line style="stroke: #A80036; stroke-width: 1.5;" x1="10" x2="125" y1="1002.0469" y2="1002.0469"/><path d="M258.029,209.578 C251.979,225.838 245.913,242.141 240.384,257 " fill="none" style="stroke: #A80036; stroke-width: 1.0;"/><polygon fill="#FFFFFF" points="262.644,197.177,256.8028,201.4055,258.4594,208.4238,264.3006,204.1952,262.644,197.177" style="stroke: #A80036; stroke-width: 1.0;"/><text fill="#000000" font-family="sans-serif" font-size="13" lengthAdjust="spacingAndGlyphs" textLength="7" x="235.6253" y="245.9908">*</text><path d="M336.958,209.543 C344.794,230.602 352.658,251.736 359.346,269.711 " fill="none" style="stroke: #A80036; stroke-width: 1.0;"/><polygon fill="#FFFFFF" points="332.356,197.177,330.6994,204.1952,336.5406,208.4238,338.1972,201.4055,332.356,197.177" style="stroke: #A80036; stroke-width: 1.0;"/><text fill="#000000" font-family="sans-serif" font-size="13" lengthAdjust="spacingAndGlyphs" textLength="7" x="349.4362" y="259.0739">*</text><path d="M219.1,382.1 C220.082,419.924 221.323,467.689 222.236,502.85 " fill="none" style="stroke: #A80036; stroke-width: 1.0;"/><path d="M345.029,369.207 C318.82,408.52 282.124,463.564 255.927,502.86 " fill="none" style="stroke: #A80036; stroke-width: 1.0;"/><path d="M376.396,369.119 C374.444,455.144 370.451,631.034 369.023,693.969 " fill="none" style="stroke: #A80036; stroke-width: 1.0;"/><path d="M399.85,369.207 C417.89,408.52 443.148,463.564 461.18,502.86 " fill="none" style="stroke: #A80036; stroke-width: 1.0;"/><path d="M441.625,613.036 C421.92,641.051 399.566,672.833 384.817,693.801 " fill="none" style="stroke: #A80036; stroke-width: 1.0;"/><polygon fill="#FFFFFF" points="449.308,602.113,442.5842,604.7189,442.4035,611.9277,449.1273,609.3218,449.308,602.113" style="stroke: #A80036; stroke-width: 1.0;"/><text fill="#000000" font-family="sans-serif" font-size="13" lengthAdjust="spacingAndGlyphs" textLength="7" x="381.1014" y="682.762">*</text><path d="M488.409,615.24 C489.993,635.165 491.712,656.78 493.156,674.943 " fill="none" style="stroke: #A80036; stroke-width: 1.0;"/><polygon fill="#FFFFFF" points="487.365,602.113,483.853,608.4111,488.3158,614.0753,491.8278,607.7772,487.365,602.113" style="stroke: #A80036; stroke-width: 1.0;"/><text fill="#000000" font-family="sans-serif" font-size="13" lengthAdjust="spacingAndGlyphs" textLength="7" x="485.0652" y="663.93">*</text><path d="M168.08,611.584 C152.435,627.982 135.463,645.769 119.995,661.981 " fill="none" style="stroke: #A80036; stroke-width: 1.0;"/><polygon fill="#A80036" points="177.117,602.113,170.0811,603.6928,168.8332,610.7951,175.8691,609.2153,177.117,602.113" style="stroke: #A80036; stroke-width: 1.0;"/><text fill="#000000" font-family="sans-serif" font-size="13" lengthAdjust="spacingAndGlyphs" textLength="7" x="119.2725" y="650.9165">*</text><path d="M224.255,615.196 C224.525,637.316 224.821,661.523 225.057,680.781 " fill="none" style="stroke: #A80036; stroke-width: 1.0;"/><polygon fill="#A80036" points="224.095,602.113,220.1685,608.1613,224.2414,614.1121,228.1679,608.0638,224.095,602.113" style="stroke: #A80036; stroke-width: 1.0;"/><text fill="#000000" font-family="sans-serif" font-size="13" lengthAdjust="spacingAndGlyphs" textLength="7" x="217.3547" y="669.9289">*</text><path d="M67.5,787.558 C67.5,802.477 67.5,818.452 67.5,833.978 " fill="none" style="stroke: #A80036; stroke-width: 1.0;"/><polygon fill="#A80036" points="67.5,774.197,63.5,780.197,67.5,786.197,71.5,780.197,67.5,774.197" style="stroke: #A80036; stroke-width: 1.0;"/><text fill="#000000" font-family="sans-serif" font-size="13" lengthAdjust="spacingAndGlyphs" textLength="7" x="60.1992" y="822.8397">*</text></g></svg>