<?xml version="1.0" encoding="UTF-8" standalone="no"?><svg xmlns="http://www.w3.org/2000/svg" xmlns:xlink="http://www.w3.org/1999/xlink" contentScriptType="application/ecmascript" contentStyleType="text/css" height="1199px" preserveAspectRatio="none" style="width:451px;height:1199px;" version="1.1" viewBox="0 0 451 1199" width="451px" zoomAndPan="magnify"><defs><filter height="300%" id="feqpq6w" width="300%" x="-1" y="-1"><feGaussianBlur result="blurOut" stdDeviation="2.0"/><feColorMatrix in="blurOut" result="blurOut2" type="matrix" values="0 0 0 0 0 0 0 0 0 0 0 0 0 0 0 0 0 0 .4 0"/><feOffset dx="4.0" dy="4.0" in="blurOut2" result="blurOut3"/><feBlend in="SourceGraphic" in2="blurOut3" mode="normal"/></filter></defs><g><!--class Application--><rect fill="#FEFECE" filter="url(#feqpq6w)" height="188.8516" style="stroke: #A80036; stroke-width: 1.5;" width="259" x="124" y="8"/><ellipse cx="214.75" cy="24" fill="#ADD1B2" rx="11" ry="11" style="stroke: #A80036; stroke-width: 1.0;"/><path d="M217.7188,29.6406 Q217.1406,29.9375 216.5,30.0859 Q215.8594,30.2344 215.1563,30.2344 Q212.6563,30.2344 211.3359,28.5859 Q210.0156,26.9375 210.0156,23.8125 Q210.0156,20.6875 211.3359,19.0313 Q212.6563,17.375 215.1563,17.375 Q215.8594,17.375 216.5078,17.5313 Q217.1563,17.6875 217.7188,17.9844 L217.7188,20.7031 Q217.0938,20.125 216.5,19.8516 Q215.9063,19.5781 215.2813,19.5781 Q213.9375,19.5781 213.25,20.6484 Q212.5625,21.7188 212.5625,23.8125 Q212.5625,25.9063 213.25,26.9766 Q213.9375,28.0469 215.2813,28.0469 Q215.9063,28.0469 216.5,27.7734 Q217.0938,27.5 217.7188,26.9219 L217.7188,29.6406 Z "/><text fill="#000000" font-family="sans-serif" font-size="12" lengthAdjust="spacingAndGlyphs" textLength="69" x="235.25" y="28.1543">Application</text><line style="stroke: #A80036; stroke-width: 1.5;" x1="125" x2="382" y1="40" y2="40"/><ellipse cx="135" cy="51.9023" fill="none" rx="3" ry="3" style="stroke: #038048; stroke-width: 1.0;"/><text fill="#000000" font-family="sans-serif" font-size="11" lengthAdjust="spacingAndGlyphs" textLength="39" x="144" y="54.2104">uri: str</text><ellipse cx="135" cy="64.707" fill="none" rx="3" ry="3" style="stroke: #038048; stroke-width: 1.0;"/><text fill="#000000" font-family="sans-serif" font-size="11" lengthAdjust="spacingAndGlyphs" textLength="70" x="144" y="67.0151">options: dict</text><ellipse cx="135" cy="77.5117" fill="none" rx="3" ry="3" style="stroke: #038048; stroke-width: 1.0;"/><text fill="#000000" font-family="sans-serif" font-size="11" lengthAdjust="spacingAndGlyphs" textLength="122" x="144" y="79.8198">writer_types: List[str]</text><ellipse cx="135" cy="90.3164" fill="none" rx="3" ry="3" style="stroke: #038048; stroke-width: 1.0;"/><text fill="#000000" font-family="sans-serif" font-size="11" lengthAdjust="spacingAndGlyphs" textLength="155" x="144" y="92.6245">writers: List[SchemaWriter]</text><ellipse cx="135" cy="103.1211" fill="none" rx="3" ry="3" style="stroke: #038048; stroke-width: 1.0;"/><text fill="#000000" font-family="sans-serif" font-size="11" lengthAdjust="spacingAndGlyphs" textLength="132" x="144" y="105.4292">reader: SchemaReader</text><ellipse cx="135" cy="115.9258" fill="none" rx="3" ry="3" style="stroke: #038048; stroke-width: 1.0;"/><text fill="#000000" font-family="sans-serif" font-size="11" lengthAdjust="spacingAndGlyphs" textLength="99" x="144" y="118.2339">schema: Schema</text><line style="stroke: #A80036; stroke-width: 1.5;" x1="125" x2="382" y1="124.8281" y2="124.8281"/><ellipse cx="135" cy="136.7305" fill="#84BE84" rx="3" ry="3" style="stroke: #038048; stroke-width: 1.0;"/><text fill="#000000" font-family="sans-serif" font-size="11" lengthAdjust="spacingAndGlyphs" textLength="90" x="144" y="139.0386">run(writer_type)</text><ellipse cx="135" cy="149.5352" fill="#84BE84" rx="3" ry="3" style="stroke: #038048; stroke-width: 1.0;"/><text fill="#000000" font-family="sans-serif" font-size="11" lengthAdjust="spacingAndGlyphs" textLength="99" x="144" y="151.8433">write(writer_type)</text><ellipse cx="135" cy="162.3398" fill="#84BE84" rx="3" ry="3" style="stroke: #038048; stroke-width: 1.0;"/><text fill="#000000" font-family="sans-serif" font-size="11" lengthAdjust="spacingAndGlyphs" textLength="120" x="144" y="164.6479">populate(writer_type)</text><ellipse cx="135" cy="175.1445" fill="#84BE84" rx="3" ry="3" style="stroke: #038048; stroke-width: 1.0;"/><text fill="#000000" font-family="sans-serif" font-size="11" lengthAdjust="spacingAndGlyphs" textLength="233" x="144" y="177.4526">get_reader(uri, options) : SchemaReader</text><ellipse cx="135" cy="187.9492" fill="#84BE84" rx="3" ry="3" style="stroke: #038048; stroke-width: 1.0;"/><text fill="#000000" font-family="sans-serif" font-size="11" lengthAdjust="spacingAndGlyphs" textLength="219" x="144" y="190.2573">get_writer(writer_type) : SchemaWriter</text><!--class SchemaReader--><rect fill="#FEFECE" filter="url(#feqpq6w)" height="124.8281" style="stroke: #A80036; stroke-width: 1.5;" width="127" x="94" y="257"/><ellipse cx="109" cy="273" fill="#ADD1B2" rx="11" ry="11" style="stroke: #A80036; stroke-width: 1.0;"/><path d="M111.9688,278.6406 Q111.3906,278.9375 110.75,279.0859 Q110.1094,279.2344 109.4063,279.2344 Q106.9063,279.2344 105.5859,277.5859 Q104.2656,275.9375 104.2656,272.8125 Q104.2656,269.6875 105.5859,268.0313 Q106.9063,266.375 109.4063,266.375 Q110.1094,266.375 110.7578,266.5313 Q111.4063,266.6875 111.9688,266.9844 L111.9688,269.7031 Q111.3438,269.125 110.75,268.8516 Q110.1563,268.5781 109.5313,268.5781 Q108.1875,268.5781 107.5,269.6484 Q106.8125,270.7188 106.8125,272.8125 Q106.8125,274.9063 107.5,275.9766 Q108.1875,277.0469 109.5313,277.0469 Q110.1563,277.0469 110.75,276.7734 Q111.3438,276.5 111.9688,275.9219 L111.9688,278.6406 Z "/><text fill="#000000" font-family="sans-serif" font-size="12" lengthAdjust="spacingAndGlyphs" textLength="95" x="123" y="277.1543">SchemaReader</text><line style="stroke: #A80036; stroke-width: 1.5;" x1="95" x2="220" y1="289" y2="289"/><ellipse cx="105" cy="300.9023" fill="none" rx="3" ry="3" style="stroke: #038048; stroke-width: 1.0;"/><text fill="#000000" font-family="sans-serif" font-size="11" lengthAdjust="spacingAndGlyphs" textLength="43" x="114" y="303.2104">uri : str</text><ellipse cx="105" cy="313.707" fill="none" rx="3" ry="3" style="stroke: #038048; stroke-width: 1.0;"/><text fill="#000000" font-family="sans-serif" font-size="11" lengthAdjust="spacingAndGlyphs" textLength="99" x="114" y="316.0151">schema: Schema</text><ellipse cx="105" cy="326.5117" fill="none" rx="3" ry="3" style="stroke: #038048; stroke-width: 1.0;"/><text fill="#000000" font-family="sans-serif" font-size="11" lengthAdjust="spacingAndGlyphs" textLength="70" x="114" y="328.8198">options: dict</text><line style="stroke: #A80036; stroke-width: 1.5;" x1="95" x2="220" y1="335.4141" y2="335.4141"/><ellipse cx="105" cy="347.3164" fill="#84BE84" rx="3" ry="3" style="stroke: #038048; stroke-width: 1.0;"/><text fill="#000000" font-family="sans-serif" font-size="11" lengthAdjust="spacingAndGlyphs" textLength="73" x="114" y="349.6245">preprocess()</text><ellipse cx="105" cy="360.1211" fill="#84BE84" rx="3" ry="3" style="stroke: #038048; stroke-width: 1.0;"/><text fill="#000000" font-family="sans-serif" font-size="11" lengthAdjust="spacingAndGlyphs" textLength="54" x="114" y="362.4292">process()</text><ellipse cx="105" cy="372.9258" fill="#84BE84" rx="3" ry="3" style="stroke: #038048; stroke-width: 1.0;"/><text fill="#000000" font-family="sans-serif" font-size="11" lengthAdjust="spacingAndGlyphs" textLength="79" x="114" y="375.2339">postprocess()</text><!--class SchemaWriter--><rect fill="#FEFECE" filter="url(#feqpq6w)" height="112.0234" style="stroke: #A80036; stroke-width: 1.5;" width="186" x="256.5" y="263.5"/><ellipse cx="301.75" cy="279.5" fill="#ADD1B2" rx="11" ry="11" style="stroke: #A80036; stroke-width: 1.0;"/><path d="M304.7188,285.1406 Q304.1406,285.4375 303.5,285.5859 Q302.8594,285.7344 302.1563,285.7344 Q299.6563,285.7344 298.3359,284.0859 Q297.0156,282.4375 297.0156,279.3125 Q297.0156,276.1875 298.3359,274.5313 Q299.6563,272.875 302.1563,272.875 Q302.8594,272.875 303.5078,273.0313 Q304.1563,273.1875 304.7188,273.4844 L304.7188,276.2031 Q304.0938,275.625 303.5,275.3516 Q302.9063,275.0781 302.2813,275.0781 Q300.9375,275.0781 300.25,276.1484 Q299.5625,277.2188 299.5625,279.3125 Q299.5625,281.4063 300.25,282.4766 Q300.9375,283.5469 302.2813,283.5469 Q302.9063,283.5469 303.5,283.2734 Q304.0938,283 304.7188,282.4219 L304.7188,285.1406 Z "/><text fill="#000000" font-family="sans-serif" font-size="12" lengthAdjust="spacingAndGlyphs" textLength="87" x="322.25" y="283.6543">SchemaWriter</text><line style="stroke: #A80036; stroke-width: 1.5;" x1="257.5" x2="441.5" y1="295.5" y2="295.5"/><ellipse cx="267.5" cy="307.4023" fill="none" rx="3" ry="3" style="stroke: #038048; stroke-width: 1.0;"/><text fill="#000000" font-family="sans-serif" font-size="11" lengthAdjust="spacingAndGlyphs" textLength="99" x="276.5" y="309.7104">schema: Schema</text><ellipse cx="267.5" cy="320.207" fill="none" rx="3" ry="3" style="stroke: #038048; stroke-width: 1.0;"/><text fill="#000000" font-family="sans-serif" font-size="11" lengthAdjust="spacingAndGlyphs" textLength="70" x="276.5" y="322.5151">options: dict</text><ellipse cx="267.5" cy="333.0117" fill="none" rx="3" ry="3" style="stroke: #038048; stroke-width: 1.0;"/><text fill="#000000" font-family="sans-serif" font-size="11" lengthAdjust="spacingAndGlyphs" textLength="160" x="276.5" y="335.3198">children: List[SchemaWriter]</text><line style="stroke: #A80036; stroke-width: 1.5;" x1="257.5" x2="441.5" y1="341.9141" y2="341.9141"/><ellipse cx="267.5" cy="353.8164" fill="#84BE84" rx="3" ry="3" style="stroke: #038048; stroke-width: 1.0;"/><text fill="#000000" font-family="sans-serif" font-size="11" lengthAdjust="spacingAndGlyphs" textLength="27" x="276.5" y="356.1245">run()</text><ellipse cx="267.5" cy="366.6211" fill="#84BE84" rx="3" ry="3" style="stroke: #038048; stroke-width: 1.0;"/><text fill="#000000" font-family="sans-serif" font-size="11" lengthAdjust="spacingAndGlyphs" textLength="36" x="276.5" y="368.9292">write()</text><!--class Schema--><rect fill="#FEFECE" filter="url(#feqpq6w)" height="99.2188" style="stroke: #A80036; stroke-width: 1.5;" width="141" x="134" y="550"/><ellipse cx="175.55" cy="566" fill="#ADD1B2" rx="11" ry="11" style="stroke: #A80036; stroke-width: 1.0;"/><path d="M178.5188,571.6406 Q177.9406,571.9375 177.3,572.0859 Q176.6594,572.2344 175.9563,572.2344 Q173.4563,572.2344 172.1359,570.5859 Q170.8156,568.9375 170.8156,565.8125 Q170.8156,562.6875 172.1359,561.0313 Q173.4563,559.375 175.9563,559.375 Q176.6594,559.375 177.3078,559.5313 Q177.9563,559.6875 178.5188,559.9844 L178.5188,562.7031 Q177.8938,562.125 177.3,561.8516 Q176.7063,561.5781 176.0813,561.5781 Q174.7375,561.5781 174.05,562.6484 Q173.3625,563.7188 173.3625,565.8125 Q173.3625,567.9063 174.05,568.9766 Q174.7375,570.0469 176.0813,570.0469 Q176.7063,570.0469 177.3,569.7734 Q177.8938,569.5 178.5188,568.9219 L178.5188,571.6406 Z "/><text fill="#000000" font-family="sans-serif" font-size="12" lengthAdjust="spacingAndGlyphs" textLength="50" x="195.45" y="570.1543">Schema</text><line style="stroke: #A80036; stroke-width: 1.5;" x1="135" x2="274" y1="582" y2="582"/><ellipse cx="145" cy="593.9023" fill="none" rx="3" ry="3" style="stroke: #038048; stroke-width: 1.0;"/><text fill="#000000" font-family="sans-serif" font-size="11" lengthAdjust="spacingAndGlyphs" textLength="60" x="154" y="596.2104">name : str</text><ellipse cx="145" cy="606.707" fill="none" rx="3" ry="3" style="stroke: #038048; stroke-width: 1.0;"/><text fill="#000000" font-family="sans-serif" font-size="11" lengthAdjust="spacingAndGlyphs" textLength="115" x="154" y="609.0151">models : List[Model]</text><ellipse cx="145" cy="619.5117" fill="none" rx="3" ry="3" style="stroke: #038048; stroke-width: 1.0;"/><text fill="#000000" font-family="sans-serif" font-size="11" lengthAdjust="spacingAndGlyphs" textLength="111" x="154" y="621.8198">enums : List[Enum]</text><ellipse cx="145" cy="632.3164" fill="none" rx="3" ry="3" style="stroke: #038048; stroke-width: 1.0;"/><text fill="#000000" font-family="sans-serif" font-size="11" lengthAdjust="spacingAndGlyphs" textLength="86" x="154" y="634.6245">metadata : dict</text><line style="stroke: #A80036; stroke-width: 1.5;" x1="135" x2="274" y1="641.2188" y2="641.2188"/><!--class Template--><rect fill="#FEFECE" filter="url(#feqpq6w)" height="48" style="stroke: #A80036; stroke-width: 1.5;" width="90" x="304.5" y="442"/><ellipse cx="319.5" cy="458" fill="#ADD1B2" rx="11" ry="11" style="stroke: #A80036; stroke-width: 1.0;"/><path d="M322.4688,463.6406 Q321.8906,463.9375 321.25,464.0859 Q320.6094,464.2344 319.9063,464.2344 Q317.4063,464.2344 316.0859,462.5859 Q314.7656,460.9375 314.7656,457.8125 Q314.7656,454.6875 316.0859,453.0313 Q317.4063,451.375 319.9063,451.375 Q320.6094,451.375 321.2578,451.5313 Q321.9063,451.6875 322.4688,451.9844 L322.4688,454.7031 Q321.8438,454.125 321.25,453.8516 Q320.6563,453.5781 320.0313,453.5781 Q318.6875,453.5781 318,454.6484 Q317.3125,455.7188 317.3125,457.8125 Q317.3125,459.9063 318,460.9766 Q318.6875,462.0469 320.0313,462.0469 Q320.6563,462.0469 321.25,461.7734 Q321.8438,461.5 322.4688,460.9219 L322.4688,463.6406 Z "/><text fill="#000000" font-family="sans-serif" font-size="12" lengthAdjust="spacingAndGlyphs" textLength="58" x="333.5" y="462.1543">Template</text><line style="stroke: #A80036; stroke-width: 1.5;" x1="305.5" x2="393.5" y1="474" y2="474"/><line style="stroke: #A80036; stroke-width: 1.5;" x1="305.5" x2="393.5" y1="482" y2="482"/><!--class Model--><rect fill="#FEFECE" filter="url(#feqpq6w)" height="124.8281" style="stroke: #A80036; stroke-width: 1.5;" width="146" x="47.5" y="709"/><ellipse cx="97.75" cy="725" fill="#ADD1B2" rx="11" ry="11" style="stroke: #A80036; stroke-width: 1.0;"/><path d="M100.7188,730.6406 Q100.1406,730.9375 99.5,731.0859 Q98.8594,731.2344 98.1563,731.2344 Q95.6563,731.2344 94.3359,729.5859 Q93.0156,727.9375 93.0156,724.8125 Q93.0156,721.6875 94.3359,720.0313 Q95.6563,718.375 98.1563,718.375 Q98.8594,718.375 99.5078,718.5313 Q100.1563,718.6875 100.7188,718.9844 L100.7188,721.7031 Q100.0938,721.125 99.5,720.8516 Q98.9063,720.5781 98.2813,720.5781 Q96.9375,720.5781 96.25,721.6484 Q95.5625,722.7188 95.5625,724.8125 Q95.5625,726.9063 96.25,727.9766 Q96.9375,729.0469 98.2813,729.0469 Q98.9063,729.0469 99.5,728.7734 Q100.0938,728.5 100.7188,727.9219 L100.7188,730.6406 Z "/><text fill="#000000" font-family="sans-serif" font-size="12" lengthAdjust="spacingAndGlyphs" textLength="37" x="118.25" y="729.1543">Model</text><line style="stroke: #A80036; stroke-width: 1.5;" x1="48.5" x2="192.5" y1="741" y2="741"/><ellipse cx="58.5" cy="752.9023" fill="none" rx="3" ry="3" style="stroke: #038048; stroke-width: 1.0;"/><text fill="#000000" font-family="sans-serif" font-size="11" lengthAdjust="spacingAndGlyphs" textLength="60" x="67.5" y="755.2104">name : str</text><ellipse cx="58.5" cy="765.707" fill="none" rx="3" ry="3" style="stroke: #038048; stroke-width: 1.0;"/><text fill="#000000" font-family="sans-serif" font-size="11" lengthAdjust="spacingAndGlyphs" textLength="97" x="67.5" y="768.0151">fields : List[Field]</text><ellipse cx="58.5" cy="778.5117" fill="none" rx="3" ry="3" style="stroke: #038048; stroke-width: 1.0;"/><text fill="#000000" font-family="sans-serif" font-size="11" lengthAdjust="spacingAndGlyphs" textLength="91" x="67.5" y="780.8198">properties : dict</text><ellipse cx="58.5" cy="791.3164" fill="none" rx="3" ry="3" style="stroke: #038048; stroke-width: 1.0;"/><text fill="#000000" font-family="sans-serif" font-size="11" lengthAdjust="spacingAndGlyphs" textLength="86" x="67.5" y="793.6245">metadata : dict</text><ellipse cx="58.5" cy="804.1211" fill="none" rx="3" ry="3" style="stroke: #038048; stroke-width: 1.0;"/><text fill="#000000" font-family="sans-serif" font-size="11" lengthAdjust="spacingAndGlyphs" textLength="96" x="67.5" y="806.4292">data : List[Tuple]</text><line style="stroke: #A80036; stroke-width: 1.0;" x1="48.5" x2="192.5" y1="813.0234" y2="813.0234"/><ellipse cx="58.5" cy="824.9258" fill="none" rx="3" ry="3" style="stroke: #038048; stroke-width: 1.0;"/><text fill="#000000" font-family="sans-serif" font-size="11" lengthAdjust="spacingAndGlyphs" textLength="120" x="67.5" y="827.2339">nspace : Namespace</text><!--class Enum--><rect fill="#FEFECE" filter="url(#feqpq6w)" height="73.6094" style="stroke: #A80036; stroke-width: 1.5;" width="122" x="228.5" y="734.5"/><ellipse cx="268.25" cy="750.5" fill="#ADD1B2" rx="11" ry="11" style="stroke: #A80036; stroke-width: 1.0;"/><path d="M271.2188,756.1406 Q270.6406,756.4375 270,756.5859 Q269.3594,756.7344 268.6563,756.7344 Q266.1563,756.7344 264.8359,755.0859 Q263.5156,753.4375 263.5156,750.3125 Q263.5156,747.1875 264.8359,745.5313 Q266.1563,743.875 268.6563,743.875 Q269.3594,743.875 270.0078,744.0313 Q270.6563,744.1875 271.2188,744.4844 L271.2188,747.2031 Q270.5938,746.625 270,746.3516 Q269.4063,746.0781 268.7813,746.0781 Q267.4375,746.0781 266.75,747.1484 Q266.0625,748.2188 266.0625,750.3125 Q266.0625,752.4063 266.75,753.4766 Q267.4375,754.5469 268.7813,754.5469 Q269.4063,754.5469 270,754.2734 Q270.5938,754 271.2188,753.4219 L271.2188,756.1406 Z "/><text fill="#000000" font-family="sans-serif" font-size="12" lengthAdjust="spacingAndGlyphs" textLength="35" x="287.75" y="754.6543">Enum</text><line style="stroke: #A80036; stroke-width: 1.5;" x1="229.5" x2="349.5" y1="766.5" y2="766.5"/><ellipse cx="239.5" cy="778.4023" fill="none" rx="3" ry="3" style="stroke: #038048; stroke-width: 1.0;"/><text fill="#000000" font-family="sans-serif" font-size="11" lengthAdjust="spacingAndGlyphs" textLength="60" x="248.5" y="780.7104">name : str</text><ellipse cx="239.5" cy="791.207" fill="none" rx="3" ry="3" style="stroke: #038048; stroke-width: 1.0;"/><text fill="#000000" font-family="sans-serif" font-size="11" lengthAdjust="spacingAndGlyphs" textLength="96" x="248.5" y="793.5151">data : List[Tuple]</text><line style="stroke: #A80036; stroke-width: 1.5;" x1="229.5" x2="349.5" y1="800.1094" y2="800.1094"/><!--class Field--><rect fill="#FEFECE" filter="url(#feqpq6w)" height="176.0469" style="stroke: #A80036; stroke-width: 1.5;" width="117" x="6" y="894"/><ellipse cx="46.2" cy="910" fill="#ADD1B2" rx="11" ry="11" style="stroke: #A80036; stroke-width: 1.0;"/><path d="M49.1688,915.6406 Q48.5906,915.9375 47.95,916.0859 Q47.3094,916.2344 46.6063,916.2344 Q44.1063,916.2344 42.7859,914.5859 Q41.4656,912.9375 41.4656,909.8125 Q41.4656,906.6875 42.7859,905.0313 Q44.1063,903.375 46.6063,903.375 Q47.3094,903.375 47.9578,903.5313 Q48.6063,903.6875 49.1688,903.9844 L49.1688,906.7031 Q48.5438,906.125 47.95,905.8516 Q47.3563,905.5781 46.7313,905.5781 Q45.3875,905.5781 44.7,906.6484 Q44.0125,907.7188 44.0125,909.8125 Q44.0125,911.9063 44.7,912.9766 Q45.3875,914.0469 46.7313,914.0469 Q47.3563,914.0469 47.95,913.7734 Q48.5438,913.5 49.1688,912.9219 L49.1688,915.6406 Z "/><text fill="#000000" font-family="sans-serif" font-size="12" lengthAdjust="spacingAndGlyphs" textLength="29" x="65.8" y="914.1543">Field</text><line style="stroke: #A80036; stroke-width: 1.5;" x1="7" x2="122" y1="926" y2="926"/><ellipse cx="17" cy="937.9023" fill="none" rx="3" ry="3" style="stroke: #038048; stroke-width: 1.0;"/><text fill="#000000" font-family="sans-serif" font-size="11" lengthAdjust="spacingAndGlyphs" textLength="60" x="26" y="940.2104">name : str</text><ellipse cx="17" cy="950.707" fill="none" rx="3" ry="3" style="stroke: #038048; stroke-width: 1.0;"/><text fill="#000000" font-family="sans-serif" font-size="11" lengthAdjust="spacingAndGlyphs" textLength="52" x="26" y="953.0151">type : str</text><ellipse cx="17" cy="963.5117" fill="none" rx="3" ry="3" style="stroke: #038048; stroke-width: 1.0;"/><text fill="#000000" font-family="sans-serif" font-size="11" lengthAdjust="spacingAndGlyphs" textLength="61" x="26" y="965.8198">length : int</text><ellipse cx="17" cy="976.3164" fill="none" rx="3" ry="3" style="stroke: #038048; stroke-width: 1.0;"/><text fill="#000000" font-family="sans-serif" font-size="11" lengthAdjust="spacingAndGlyphs" textLength="58" x="26" y="978.6245">index : str</text><ellipse cx="17" cy="989.1211" fill="none" rx="3" ry="3" style="stroke: #038048; stroke-width: 1.0;"/><text fill="#000000" font-family="sans-serif" font-size="11" lengthAdjust="spacingAndGlyphs" textLength="84" x="26" y="991.4292">required : bool</text><ellipse cx="17" cy="1001.9258" fill="none" rx="3" ry="3" style="stroke: #038048; stroke-width: 1.0;"/><text fill="#000000" font-family="sans-serif" font-size="11" lengthAdjust="spacingAndGlyphs" textLength="67" x="26" y="1004.2339">default : str</text><ellipse cx="17" cy="1014.7305" fill="none" rx="3" ry="3" style="stroke: #038048; stroke-width: 1.0;"/><text fill="#000000" font-family="sans-serif" font-size="11" lengthAdjust="spacingAndGlyphs" textLength="85" x="26" y="1017.0386">constraint : str</text><ellipse cx="17" cy="1027.5352" fill="none" rx="3" ry="3" style="stroke: #038048; stroke-width: 1.0;"/><text fill="#000000" font-family="sans-serif" font-size="11" lengthAdjust="spacingAndGlyphs" textLength="77" x="26" y="1029.8433">category : str</text><ellipse cx="17" cy="1040.3398" fill="none" rx="3" ry="3" style="stroke: #038048; stroke-width: 1.0;"/><text fill="#000000" font-family="sans-serif" font-size="11" lengthAdjust="spacingAndGlyphs" textLength="62" x="26" y="1042.6479">action : str</text><ellipse cx="17" cy="1053.1445" fill="none" rx="3" ry="3" style="stroke: #038048; stroke-width: 1.0;"/><text fill="#000000" font-family="sans-serif" font-size="11" lengthAdjust="spacingAndGlyphs" textLength="91" x="26" y="1055.4526">description : str</text><line style="stroke: #A80036; stroke-width: 1.5;" x1="7" x2="122" y1="1062.0469" y2="1062.0469"/><!--class Namespace--><rect fill="#FEFECE" filter="url(#feqpq6w)" height="60.8047" style="stroke: #A80036; stroke-width: 1.5;" width="106" x="123.5" y="1130"/><ellipse cx="138.5" cy="1146" fill="#ADD1B2" rx="11" ry="11" style="stroke: #A80036; stroke-width: 1.0;"/><path d="M141.4688,1151.6406 Q140.8906,1151.9375 140.25,1152.0859 Q139.6094,1152.2344 138.9063,1152.2344 Q136.4063,1152.2344 135.0859,1150.5859 Q133.7656,1148.9375 133.7656,1145.8125 Q133.7656,1142.6875 135.0859,1141.0313 Q136.4063,1139.375 138.9063,1139.375 Q139.6094,1139.375 140.2578,1139.5313 Q140.9063,1139.6875 141.4688,1139.9844 L141.4688,1142.7031 Q140.8438,1142.125 140.25,1141.8516 Q139.6563,1141.5781 139.0313,1141.5781 Q137.6875,1141.5781 137,1142.6484 Q136.3125,1143.7188 136.3125,1145.8125 Q136.3125,1147.9063 137,1148.9766 Q137.6875,1150.0469 139.0313,1150.0469 Q139.6563,1150.0469 140.25,1149.7734 Q140.8438,1149.5 141.4688,1148.9219 L141.4688,1151.6406 Z "/><text fill="#000000" font-family="sans-serif" font-size="12" lengthAdjust="spacingAndGlyphs" textLength="74" x="152.5" y="1150.1543">Namespace</text><line style="stroke: #A80036; stroke-width: 1.5;" x1="124.5" x2="228.5" y1="1162" y2="1162"/><ellipse cx="134.5" cy="1173.9023" fill="none" rx="3" ry="3" style="stroke: #038048; stroke-width: 1.0;"/><text fill="#000000" font-family="sans-serif" font-size="11" lengthAdjust="spacingAndGlyphs" textLength="73" x="143.5" y="1176.2104">nspace : dict</text><line style="stroke: #A80036; stroke-width: 1.5;" x1="124.5" x2="228.5" y1="1182.8047" y2="1182.8047"/><path d="M206.349,209.1 C199.018,225.518 191.66,241.996 184.961,257 " fill="none" style="stroke: #A80036; stroke-width: 1.0;"/><polygon fill="#FFFFFF" points="211.672,197.177,205.5735,201.0251,206.78,208.1346,212.8785,204.2865,211.672,197.177" style="stroke: #A80036; stroke-width: 1.0;"/><text fill="#000000" font-family="sans-serif" font-size="13" lengthAdjust="spacingAndGlyphs" textLength="7" x="180.7315" y="245.9908">*</text><path d="M300.681,209.166 C309.071,227.956 317.495,246.821 324.926,263.464 " fill="none" style="stroke: #A80036; stroke-width: 1.0;"/><polygon fill="#FFFFFF" points="295.328,197.177,294.1215,204.2865,300.22,208.1346,301.4265,201.0251,295.328,197.177" style="stroke: #A80036; stroke-width: 1.0;"/><text fill="#000000" font-family="sans-serif" font-size="13" lengthAdjust="spacingAndGlyphs" textLength="7" x="314.329" y="252.3974">*</text><path d="M167.931,382.197 C176.477,432.746 188.404,503.292 196.283,549.897 " fill="none" style="stroke: #A80036; stroke-width: 1.0;"/><path d="M320.679,375.756 C294.168,426.585 255.233,501.233 229.873,549.854 " fill="none" style="stroke: #A80036; stroke-width: 1.0;"/><path d="M349.5,388.656 C349.5,407.783 349.5,427.294 349.5,441.804 " fill="none" style="stroke: #A80036; stroke-width: 1.0;"/><polygon fill="#FFFFFF" points="349.5,375.541,345.5,381.541,349.5,387.541,353.5,381.541,349.5,375.541" style="stroke: #A80036; stroke-width: 1.0;"/><text fill="#000000" font-family="sans-serif" font-size="13" lengthAdjust="spacingAndGlyphs" textLength="7" x="341.6031" y="430.7658">*</text><path d="M174.465,661.285 C166.849,676.699 158.66,693.272 151.019,708.734 " fill="none" style="stroke: #A80036; stroke-width: 1.0;"/><polygon fill="#A80036" points="180.429,649.215,174.1846,652.8216,175.1121,659.9728,181.3565,656.3662,180.429,649.215" style="stroke: #A80036; stroke-width: 1.0;"/><text fill="#000000" font-family="sans-serif" font-size="13" lengthAdjust="spacingAndGlyphs" textLength="7" x="146.9742" y="698.1322">*</text><path d="M234.751,661.002 C247.042,685.583 260.827,713.153 271.49,734.479 " fill="none" style="stroke: #A80036; stroke-width: 1.0;"/><polygon fill="#A80036" points="228.858,649.215,227.9639,656.3705,234.2251,659.9479,235.1192,652.7924,228.858,649.215" style="stroke: #A80036; stroke-width: 1.0;"/><text fill="#000000" font-family="sans-serif" font-size="13" lengthAdjust="spacingAndGlyphs" textLength="7" x="260.5241" y="723.3856">*</text><path d="M100.547,846.789 C96.4443,862.065 92.0896,878.278 87.8784,893.957 " fill="none" style="stroke: #A80036; stroke-width: 1.0;"/><polygon fill="#A80036" points="103.9255,834.211,98.5058,838.9678,100.8121,845.8001,106.2318,841.0433,103.9255,834.211" style="stroke: #A80036; stroke-width: 1.0;"/><text fill="#000000" font-family="sans-serif" font-size="13" lengthAdjust="spacingAndGlyphs" textLength="7" x="82.5867" y="882.8169">*</text><path d="M131.014,834.257 C134.177,853.388 137.581,874.55 140.5,894 C153.34,979.561 166.526,1080.947 172.777,1129.9949 " fill="none" style="stroke: #A80036; stroke-width: 1.0;"/></g></svg>