<?xml version="1.0" encoding="UTF-8" standalone="no"?><svg xmlns="http://www.w3.org/2000/svg" xmlns:xlink="http://www.w3.org/1999/xlink" contentScriptType="application/ecmascript" contentStyleType="text/css" height="536px" preserveAspectRatio="none" style="width:295px;height:536px;" version="1.1" viewBox="0 0 295 536" width="295px" zoomAndPan="magnify"><defs><filter height="300%" id="fut0r0v" width="300%" x="-1" y="-1"><feGaussianBlur result="blurOut" stdDeviation="2.0"/><feColorMatrix in="blurOut" result="blurOut2" type="matrix" values="0 0 0 0 0 0 0 0 0 0 0 0 0 0 0 0 0 0 .4 0"/><feOffset dx="4.0" dy="4.0" in="blurOut2" result="blurOut3"/><feBlend in="SourceGraphic" in2="blurOut3" mode="normal"/></filter></defs><g><!--class Schema--><rect fill="#FEFECE" filter="url(#fut0r0v)" height="99.2188" style="stroke: #A80036; stroke-width: 1.5;" width="141" x="76" y="8"/><ellipse cx="117.55" cy="24" fill="#ADD1B2" rx="11" ry="11" style="stroke: #A80036; stroke-width: 1.0;"/><path d="M120.5188,29.6406 Q119.9406,29.9375 119.3,30.0859 Q118.6594,30.2344 117.9563,30.2344 Q115.4563,30.2344 114.1359,28.5859 Q112.8156,26.9375 112.8156,23.8125 Q112.8156,20.6875 114.1359,19.0313 Q115.4563,17.375 117.9563,17.375 Q118.6594,17.375 119.3078,17.5313 Q119.9563,17.6875 120.5188,17.9844 L120.5188,20.7031 Q119.8938,20.125 119.3,19.8516 Q118.7063,19.5781 118.0813,19.5781 Q116.7375,19.5781 116.05,20.6484 Q115.3625,21.7188 115.3625,23.8125 Q115.3625,25.9063 116.05,26.9766 Q116.7375,28.0469 118.0813,28.0469 Q118.7063,28.0469 119.3,27.7734 Q119.8938,27.5 120.5188,26.9219 L120.5188,29.6406 Z "/><text fill="#000000" font-family="sans-serif" font-size="12" lengthAdjust="spacingAndGlyphs" textLength="50" x="137.45" y="28.1543">Schema</text><line style="stroke: #A80036; stroke-width: 1.5;" x1="77" x2="216" y1="40" y2="40"/><ellipse cx="87" cy="51.9023" fill="none" rx="3" ry="3" style="stroke: #038048; stroke-width: 1.0;"/><text fill="#000000" font-family="sans-serif" font-size="11" lengthAdjust="spacingAndGlyphs" textLength="60" x="96" y="54.2104">name : str</text><ellipse cx="87" cy="64.707" fill="none" rx="3" ry="3" style="stroke: #038048; stroke-width: 1.0;"/><text fill="#000000" font-family="sans-serif" font-size="11" lengthAdjust="spacingAndGlyphs" textLength="115" x="96" y="67.0151">models : List[Model]</text><ellipse cx="87" cy="77.5117" fill="none" rx="3" ry="3" style="stroke: #038048; stroke-width: 1.0;"/><text fill="#000000" font-family="sans-serif" font-size="11" lengthAdjust="spacingAndGlyphs" textLength="111" x="96" y="79.8198">enums : List[Enum]</text><rect fill="none" height="6" style="stroke: #C82930; stroke-width: 1.0;" width="6" x="84" y="87.3164"/><text fill="#000000" font-family="sans-serif" font-size="11" lengthAdjust="spacingAndGlyphs" textLength="86" x="96" y="92.6245">metadata : dict</text><line style="stroke: #A80036; stroke-width: 1.5;" x1="77" x2="216" y1="99.2188" y2="99.2188"/><!--class Model--><rect fill="#FEFECE" filter="url(#fut0r0v)" height="112.0234" style="stroke: #A80036; stroke-width: 1.5;" width="123" x="6" y="167"/><ellipse cx="45.3" cy="183" fill="#ADD1B2" rx="11" ry="11" style="stroke: #A80036; stroke-width: 1.0;"/><path d="M48.2688,188.6406 Q47.6906,188.9375 47.05,189.0859 Q46.4094,189.2344 45.7063,189.2344 Q43.2063,189.2344 41.8859,187.5859 Q40.5656,185.9375 40.5656,182.8125 Q40.5656,179.6875 41.8859,178.0313 Q43.2063,176.375 45.7063,176.375 Q46.4094,176.375 47.0578,176.5313 Q47.7063,176.6875 48.2688,176.9844 L48.2688,179.7031 Q47.6438,179.125 47.05,178.8516 Q46.4563,178.5781 45.8313,178.5781 Q44.4875,178.5781 43.8,179.6484 Q43.1125,180.7188 43.1125,182.8125 Q43.1125,184.9063 43.8,185.9766 Q44.4875,187.0469 45.8313,187.0469 Q46.4563,187.0469 47.05,186.7734 Q47.6438,186.5 48.2688,185.9219 L48.2688,188.6406 Z "/><text fill="#000000" font-family="sans-serif" font-size="12" lengthAdjust="spacingAndGlyphs" textLength="37" x="64.7" y="187.1543">Model</text><line style="stroke: #A80036; stroke-width: 1.5;" x1="7" x2="128" y1="199" y2="199"/><ellipse cx="17" cy="210.9023" fill="none" rx="3" ry="3" style="stroke: #038048; stroke-width: 1.0;"/><text fill="#000000" font-family="sans-serif" font-size="11" lengthAdjust="spacingAndGlyphs" textLength="60" x="26" y="213.2104">name : str</text><ellipse cx="17" cy="223.707" fill="none" rx="3" ry="3" style="stroke: #038048; stroke-width: 1.0;"/><text fill="#000000" font-family="sans-serif" font-size="11" lengthAdjust="spacingAndGlyphs" textLength="97" x="26" y="226.0151">fields : List[Field]</text><ellipse cx="17" cy="236.5117" fill="none" rx="3" ry="3" style="stroke: #038048; stroke-width: 1.0;"/><text fill="#000000" font-family="sans-serif" font-size="11" lengthAdjust="spacingAndGlyphs" textLength="91" x="26" y="238.8198">properties : dict</text><rect fill="none" height="6" style="stroke: #C82930; stroke-width: 1.0;" width="6" x="14" y="246.3164"/><text fill="#000000" font-family="sans-serif" font-size="11" lengthAdjust="spacingAndGlyphs" textLength="86" x="26" y="251.6245">metadata : dict</text><ellipse cx="17" cy="262.1211" fill="none" rx="3" ry="3" style="stroke: #038048; stroke-width: 1.0;"/><text fill="#000000" font-family="sans-serif" font-size="11" lengthAdjust="spacingAndGlyphs" textLength="96" x="26" y="264.4292">data : List[Tuple]</text><line style="stroke: #A80036; stroke-width: 1.5;" x1="7" x2="128" y1="271.0234" y2="271.0234"/><!--class Enum--><rect fill="#FEFECE" filter="url(#fut0r0v)" height="73.6094" style="stroke: #A80036; stroke-width: 1.5;" width="122" x="164.5" y="186"/><ellipse cx="204.25" cy="202" fill="#ADD1B2" rx="11" ry="11" style="stroke: #A80036; stroke-width: 1.0;"/><path d="M207.2188,207.6406 Q206.6406,207.9375 206,208.0859 Q205.3594,208.2344 204.6563,208.2344 Q202.1563,208.2344 200.8359,206.5859 Q199.5156,204.9375 199.5156,201.8125 Q199.5156,198.6875 200.8359,197.0313 Q202.1563,195.375 204.6563,195.375 Q205.3594,195.375 206.0078,195.5313 Q206.6563,195.6875 207.2188,195.9844 L207.2188,198.7031 Q206.5938,198.125 206,197.8516 Q205.4063,197.5781 204.7813,197.5781 Q203.4375,197.5781 202.75,198.6484 Q202.0625,199.7188 202.0625,201.8125 Q202.0625,203.9063 202.75,204.9766 Q203.4375,206.0469 204.7813,206.0469 Q205.4063,206.0469 206,205.7734 Q206.5938,205.5 207.2188,204.9219 L207.2188,207.6406 Z "/><text fill="#000000" font-family="sans-serif" font-size="12" lengthAdjust="spacingAndGlyphs" textLength="35" x="223.75" y="206.1543">Enum</text><line style="stroke: #A80036; stroke-width: 1.5;" x1="165.5" x2="285.5" y1="218" y2="218"/><ellipse cx="175.5" cy="229.9023" fill="none" rx="3" ry="3" style="stroke: #038048; stroke-width: 1.0;"/><text fill="#000000" font-family="sans-serif" font-size="11" lengthAdjust="spacingAndGlyphs" textLength="60" x="184.5" y="232.2104">name : str</text><ellipse cx="175.5" cy="242.707" fill="none" rx="3" ry="3" style="stroke: #038048; stroke-width: 1.0;"/><text fill="#000000" font-family="sans-serif" font-size="11" lengthAdjust="spacingAndGlyphs" textLength="96" x="184.5" y="245.0151">data : List[Tuple]</text><line style="stroke: #A80036; stroke-width: 1.5;" x1="165.5" x2="285.5" y1="251.6094" y2="251.6094"/><!--class Field--><rect fill="#FEFECE" filter="url(#fut0r0v)" height="188.8516" style="stroke: #A80036; stroke-width: 1.5;" width="117" x="9" y="339"/><ellipse cx="49.2" cy="355" fill="#ADD1B2" rx="11" ry="11" style="stroke: #A80036; stroke-width: 1.0;"/><path d="M52.1688,360.6406 Q51.5906,360.9375 50.95,361.0859 Q50.3094,361.2344 49.6063,361.2344 Q47.1063,361.2344 45.7859,359.5859 Q44.4656,357.9375 44.4656,354.8125 Q44.4656,351.6875 45.7859,350.0313 Q47.1063,348.375 49.6063,348.375 Q50.3094,348.375 50.9578,348.5313 Q51.6063,348.6875 52.1688,348.9844 L52.1688,351.7031 Q51.5438,351.125 50.95,350.8516 Q50.3563,350.5781 49.7313,350.5781 Q48.3875,350.5781 47.7,351.6484 Q47.0125,352.7188 47.0125,354.8125 Q47.0125,356.9063 47.7,357.9766 Q48.3875,359.0469 49.7313,359.0469 Q50.3563,359.0469 50.95,358.7734 Q51.5438,358.5 52.1688,357.9219 L52.1688,360.6406 Z "/><text fill="#000000" font-family="sans-serif" font-size="12" lengthAdjust="spacingAndGlyphs" textLength="29" x="68.8" y="359.1543">Field</text><line style="stroke: #A80036; stroke-width: 1.5;" x1="10" x2="125" y1="371" y2="371"/><ellipse cx="20" cy="382.9023" fill="none" rx="3" ry="3" style="stroke: #038048; stroke-width: 1.0;"/><text fill="#000000" font-family="sans-serif" font-size="11" lengthAdjust="spacingAndGlyphs" textLength="60" x="29" y="385.2104">name : str</text><ellipse cx="20" cy="395.707" fill="none" rx="3" ry="3" style="stroke: #038048; stroke-width: 1.0;"/><text fill="#000000" font-family="sans-serif" font-size="11" lengthAdjust="spacingAndGlyphs" textLength="52" x="29" y="398.0151">type : str</text><ellipse cx="20" cy="408.5117" fill="none" rx="3" ry="3" style="stroke: #038048; stroke-width: 1.0;"/><text fill="#000000" font-family="sans-serif" font-size="11" lengthAdjust="spacingAndGlyphs" textLength="61" x="29" y="410.8198">length : int</text><ellipse cx="20" cy="421.3164" fill="none" rx="3" ry="3" style="stroke: #038048; stroke-width: 1.0;"/><text fill="#000000" font-family="sans-serif" font-size="11" lengthAdjust="spacingAndGlyphs" textLength="58" x="29" y="423.6245">index : str</text><ellipse cx="20" cy="434.1211" fill="none" rx="3" ry="3" style="stroke: #038048; stroke-width: 1.0;"/><text fill="#000000" font-family="sans-serif" font-size="11" lengthAdjust="spacingAndGlyphs" textLength="84" x="29" y="436.4292">required : bool</text><ellipse cx="20" cy="446.9258" fill="none" rx="3" ry="3" style="stroke: #038048; stroke-width: 1.0;"/><text fill="#000000" font-family="sans-serif" font-size="11" lengthAdjust="spacingAndGlyphs" textLength="67" x="29" y="449.2339">default : str</text><ellipse cx="20" cy="459.7305" fill="none" rx="3" ry="3" style="stroke: #038048; stroke-width: 1.0;"/><text fill="#000000" font-family="sans-serif" font-size="11" lengthAdjust="spacingAndGlyphs" textLength="85" x="29" y="462.0386">constraint : str</text><ellipse cx="20" cy="472.5352" fill="none" rx="3" ry="3" style="stroke: #038048; stroke-width: 1.0;"/><text fill="#000000" font-family="sans-serif" font-size="11" lengthAdjust="spacingAndGlyphs" textLength="77" x="29" y="474.8433">category : str</text><ellipse cx="20" cy="485.3398" fill="none" rx="3" ry="3" style="stroke: #038048; stroke-width: 1.0;"/><text fill="#000000" font-family="sans-serif" font-size="11" lengthAdjust="spacingAndGlyphs" textLength="62" x="29" y="487.6479">action : str</text><ellipse cx="20" cy="498.1445" fill="none" rx="3" ry="3" style="stroke: #038048; stroke-width: 1.0;"/><text fill="#000000" font-family="sans-serif" font-size="11" lengthAdjust="spacingAndGlyphs" textLength="91" x="29" y="500.4526">description : str</text><rect fill="none" height="6" style="stroke: #C82930; stroke-width: 1.0;" width="6" x="17" y="507.9492"/><text fill="#000000" font-family="sans-serif" font-size="11" lengthAdjust="spacingAndGlyphs" textLength="80" x="29" y="513.2573">model : Model</text><line style="stroke: #A80036; stroke-width: 1.5;" x1="10" x2="125" y1="519.8516" y2="519.8516"/><path d="M117.32,118.892 C109.71,134.641 101.5512,151.527 94.0841,166.981 " fill="none" style="stroke: #A80036; stroke-width: 1.0;"/><polygon fill="#FFFFFF" points="123.011,107.113,116.7989,110.775,117.79,117.9177,124.0021,114.2557,123.011,107.113" style="stroke: #A80036; stroke-width: 1.0;"/><path d="M175.709,118.952 C186.558,141.405 198.52,166.161 208,185.781 " fill="none" style="stroke: #A80036; stroke-width: 1.0;"/><polygon fill="#FFFFFF" points="169.989,107.113,168.9979,114.2557,175.21,117.9177,176.2011,110.775,169.989,107.113" style="stroke: #A80036; stroke-width: 1.0;"/><path d="M67.5,292.341 C67.5,307.194 67.5,323.154 67.5,338.795 " fill="none" style="stroke: #A80036; stroke-width: 1.0;"/><polygon fill="#FFFFFF" points="67.5,279.054,63.5,285.054,67.5,291.054,71.5,285.054,67.5,279.054" style="stroke: #A80036; stroke-width: 1.0;"/></g></svg>